<?xml version="1.0" encoding="utf-8"?>
<!-- Generator: Adobe Illustrator 19.0.0, SVG Export Plug-In . SVG Version: 6.00 Build 0)  -->
<svg version="1.1" id="Layer_1" xmlns="http://www.w3.org/2000/svg" xmlns:xlink="http://www.w3.org/1999/xlink" x="0px" y="0px"
	 viewBox="0 0 96 96" style="enable-background:new 0 0 96 96;" xml:space="preserve">
<style type="text/css">
	.st0{fill:#d4dde3;}
</style>
<g id="XMLID_1_">
	<path id="XMLID_5_" class="st0" d="M64.3,44.8h-26v-13c0-5.4,4.4-9.8,9.8-9.8s9.8,4.4,9.8,9.8V35h6.5v-3.3c0-9-7.3-16.3-16.3-16.3
		s-16.3,7.3-16.3,16.3v13c-3.6,0-6.5,2.9-6.5,6.5V74c0,3.6,2.9,6.5,6.5,6.5h32.5c3.6,0,6.5-2.9,6.5-6.5V51.3
		C70.8,47.7,67.8,44.8,64.3,44.8z M48,67.5c-2.7,0-4.9-2.2-4.9-4.9s2.2-4.9,4.9-4.9s4.9,2.2,4.9,4.9S50.7,67.5,48,67.5z"/>
</g>
</svg>
